<svg id="Layer_1" data-name="Layer 1" xmlns="http://www.w3.org/2000/svg" xmlns:xlink="http://www.w3.org/1999/xlink" viewBox="0 0 1500 1000"><defs><style>.cls-1{fill:none;}.cls-2{clip-path:url(#clip-path);}.cls-3{fill:#00008b;}.cls-4{fill:#fff;}.cls-5{clip-path:url(#clip-path-2);}.cls-6{fill:red;}.cls-7{clip-path:url(#clip-path-3);}.cls-8{clip-path:url(#clip-path-4);}.cls-9{clip-path:url(#clip-path-7);}.cls-10{clip-path:url(#clip-path-8);}</style><clipPath id="clip-path"><circle class="cls-1" cx="750" cy="500" r="331"/></clipPath><clipPath id="clip-path-2"><rect class="cls-1" x="233" y="155.33" width="575.03" height="313.99"/></clipPath><clipPath id="clip-path-3"><rect class="cls-1" x="523.33" y="246.11" width="324.79" height="277.31"/></clipPath><clipPath id="clip-path-4"><rect class="cls-1" x="210.65" y="129.31" width="316.61" height="353.2"/></clipPath><clipPath id="clip-path-7"><rect class="cls-1" x="532.18" y="137" width="279.37" height="386.42"/></clipPath><clipPath id="clip-path-8"><rect class="cls-1" x="216.49" y="129.31" width="321.66" height="353.2"/></clipPath></defs><title>flag-of-Australia</title><g class="cls-2"><polygon class="cls-3" points="233 155.33 233 383.43 233 388.48 233 611.52 233 616.57 233 844.67 1267 844.67 1267 616.57 1267 611.52 1267 388.48 1267 383.43 1267 155.33 233 155.33"/><polygon class="cls-4" points="527.52 552.66 545.25 597.75 591.4 583.55 567.35 625.59 607.17 652.98 559.46 660.3 562.97 708.65 527.52 675.75 492.08 708.65 495.6 660.3 447.88 652.98 487.7 625.59 463.66 583.55 509.8 597.75 527.52 552.66"/><polygon class="cls-4" points="869.45 389.36 876.24 406.62 893.9 401.18 884.7 417.28 899.95 427.76 881.68 430.57 883.03 449.08 869.45 436.49 855.88 449.08 857.23 430.57 838.96 427.76 854.21 417.28 845 401.18 862.66 406.62 869.45 389.36"/><polygon class="cls-4" points="974.85 240.63 981.64 257.88 999.3 252.45 990.09 268.55 1005.34 279.03 987.08 281.83 988.42 300.35 974.85 287.75 961.27 300.35 962.62 281.83 944.35 279.03 959.6 268.55 950.4 252.45 968.06 257.88 974.85 240.63"/><polygon class="cls-4" points="1067.18 392.55 1073.97 409.81 1091.64 404.38 1082.43 420.48 1097.68 430.96 1079.41 433.77 1080.76 452.28 1067.18 439.68 1053.61 452.28 1054.96 433.77 1036.69 430.96 1051.94 420.48 1042.73 404.38 1060.4 409.81 1067.18 392.55"/><polygon class="cls-4" points="974.85 610.86 981.64 628.13 999.3 622.69 990.09 638.78 1005.34 649.27 987.08 652.07 988.42 670.58 974.85 657.99 961.27 670.58 962.62 652.07 944.35 649.27 959.6 638.78 950.4 622.69 968.06 628.13 974.85 610.86"/><g class="cls-5"><polygon class="cls-4" points="802.51 501.77 172.22 157.61 199.6 98.58 829.9 442.75 802.51 501.77"/><polygon class="cls-6" points="807.65 490.71 177.35 146.54 185.35 129.31 815.64 473.48 807.65 490.71"/><g class="cls-7"><polygon class="cls-4" points="199.6 98.58 829.9 442.75 802.51 501.77 172.22 157.61 199.6 98.58"/><polygon class="cls-6" points="194.47 109.64 824.77 453.81 816.77 471.04 186.48 126.88 194.47 109.64"/></g><g class="cls-8"><polygon class="cls-4" points="802.51 501.77 172.22 157.61 199.6 98.58 829.9 442.75 802.51 501.77"/><polygon class="cls-6" points="807.65 490.71 177.35 146.54 185.35 129.31 815.64 473.48 807.65 490.71"/></g><g class="cls-7"><polygon class="cls-4" points="199.6 98.58 829.9 442.75 802.51 501.77 172.22 157.61 199.6 98.58"/><polygon class="cls-6" points="194.47 109.64 824.77 453.81 816.77 471.04 186.48 126.88 194.47 109.64"/></g><g class="cls-8"><polygon class="cls-4" points="802.51 501.77 172.22 157.61 199.6 98.58 829.9 442.75 802.51 501.77"/><polygon class="cls-6" points="807.65 490.71 177.35 146.54 185.35 129.31 815.64 473.48 807.65 490.71"/></g><g class="cls-9"><polygon class="cls-4" points="849.14 98.58 218.84 442.75 246.23 501.77 876.53 157.61 849.14 98.58"/><polygon class="cls-6" points="854.27 109.64 223.98 453.81 231.97 471.04 862.27 126.88 854.27 109.64"/></g><g class="cls-10"><polygon class="cls-4" points="246.23 501.77 876.53 157.61 849.14 98.58 218.84 442.75 246.23 501.77"/><polygon class="cls-6" points="241.1 490.71 871.4 146.54 863.4 129.31 233.1 473.48 241.1 490.71"/></g><rect class="cls-4" x="233" y="259.56" width="580.67" height="104.56"/><rect class="cls-4" x="473.76" y="154.36" width="96.38" height="314.96"/><rect class="cls-6" x="491.92" y="154.36" width="60.07" height="314.96"/><rect class="cls-6" x="233" y="279.26" width="580.67" height="65.16"/></g></g></svg>